<svg width="25" height="24" viewBox="0 0 25 24" fill="none" xmlns="http://www.w3.org/2000/svg">
<path d="M16.1978 8C16.1978 9.06087 15.7764 10.0783 15.0263 10.8284C14.2761 11.5786 13.2587 12 12.1978 12C11.137 12 10.1195 11.5786 9.3694 10.8284C8.61926 10.0783 8.19783 9.06087 8.19783 8M3.83105 7.40138L3.13105 15.8014C2.98067 17.6059 2.90548 18.5082 3.21051 19.2042C3.47852 19.8157 3.94286 20.3204 4.53002 20.6382C5.1983 21 6.10369 21 7.91447 21H16.4812C18.292 21 19.1974 21 19.8656 20.6382C20.4528 20.3204 20.9171 19.8157 21.1851 19.2042C21.4902 18.5082 21.415 17.6059 21.2646 15.8014L20.5646 7.40138C20.4352 5.84875 20.3705 5.07243 20.0267 4.48486C19.7239 3.96744 19.2731 3.5526 18.7323 3.29385C18.1182 3 17.3392 3 15.7812 3L8.61447 3C7.05645 3 6.27745 3 5.66335 3.29384C5.12257 3.5526 4.67173 3.96744 4.36896 4.48486C4.02513 5.07243 3.96043 5.84875 3.83105 7.40138Z" stroke="#334155" stroke-width="2" stroke-linecap="round" stroke-linejoin="round"/>
</svg>
